<svg id="_-e-ic_education" data-name="-e-ic_education" xmlns="http://www.w3.org/2000/svg" width="34" height="33" viewBox="0 0 34 33">
<defs>
    <style>
      .cls-1 {
        fill: #fff;
      }

      .cls-1, .cls-2 {
        fill-rule: evenodd;
      }

      .cls-2 {
        fill: #39c2d7;
      }
    </style>
  </defs>
  <path class="cls-1" d="M2085.97,296.916h3.27a2.964,2.964,0,1,0-.11-1.359h-3.16a0.68,0.68,0,1,0,0,1.359h0Zm6.07-2.51a1.586,1.586,0,1,1-1.58,1.585,1.587,1.587,0,0,1,1.58-1.585h0Zm0,0-8.84-3.758a0.69,0.69,0,0,0,.48.2,0.732,0.732,0,0,0,.49-0.2l2.12-2.126a2.926,2.926,0,0,0,1.64.5,2.959,2.959,0,1,0-2.56-1.5l-2.16,2.158a0.688,0.688,0,0,0-.01.967h0Zm3.61-5.712a1.546,1.546,0,0,1,1.12-.462,1.615,1.615,0,0,1,1.13.462,1.594,1.594,0,0,1-1.13,2.718,1.552,1.552,0,0,1-1.12-.469,1.592,1.592,0,0,1,0-2.249h0Zm0,0-9.72-.171v3.275a0.686,0.686,0,0,0,.69.683,0.678,0.678,0,0,0,.68-0.683v-3.173a2.948,2.948,0,1,0-1.37-.1h0Zm0.91-4.4a1.587,1.587,0,1,1-1.59,1.586,1.585,1.585,0,0,1,1.59-1.586h0Zm0,0-14.05,18.586a2.976,2.976,0,0,0,2.81-2.027h2.99a0.683,0.683,0,1,0,0-1.366h-2.88a2.952,2.952,0,1,0-2.92,3.393h0Zm0-4.544a1.586,1.586,0,1,1-1.59,1.585,1.587,1.587,0,0,1,1.59-1.585h0Zm0,0,4.11-5.387a2.956,2.956,0,0,0,1.49-.407l2.16,2.159a0.688,0.688,0,0,0,.97,0,0.677,0.677,0,0,0,0-.966l-2.14-2.138a2.949,2.949,0,1,0-2.48,1.352h0Zm-1.12-4.083a1.563,1.563,0,0,1,1.12-.462,1.615,1.615,0,0,1,1.13.462,1.594,1.594,0,0,1-1.13,2.718,1.569,1.569,0,0,1-1.12-.469,1.592,1.592,0,0,1,0-2.249h0Zm0,0" transform="translate(-2061 -279)"/>
  <path class="cls-2" d="M2074.29,300.5v2.965a30.079,30.079,0,0,0-5.17,3.359,2.487,2.487,0,0,0-.91,1.931v2.565a0.68,0.68,0,1,0,1.36,0V308.75a1.149,1.149,0,0,1,.42-0.876,28.88,28.88,0,0,1,5.19-3.331,0.836,0.836,0,0,0,.48-0.765v-3.606a0.7,0.7,0,0,0-.3-0.567,0.984,0.984,0,0,1-.45-0.834v-3.745a2.688,2.688,0,0,1,2.69-2.689h0.8a2.688,2.688,0,0,1,2.69,2.689v3.745a0.99,0.99,0,0,1-.44.834,0.659,0.659,0,0,0-.31.567v3.606a0.862,0.862,0,0,0,.48.765,28.519,28.519,0,0,1,5.19,3.331,1.107,1.107,0,0,1,.42.876v2.565a0.68,0.68,0,1,0,1.36,0V308.75a2.487,2.487,0,0,0-.91-1.931,29.706,29.706,0,0,0-5.17-3.359V300.5a2.346,2.346,0,0,0,.75-1.731V295.02a4.063,4.063,0,0,0-4.06-4.056h-0.8a4.063,4.063,0,0,0-4.06,4.056v3.744a2.384,2.384,0,0,0,.75,1.731h0Zm0,0" transform="translate(-2061 -279)"/>
</svg>
