<svg id="_-e-ic_career" data-name="-e-ic_career" xmlns="http://www.w3.org/2000/svg" width="19.56" height="25.031" viewBox="0 0 19.56 25.031">
<defs>
    <style>
      .cls-1 {
        fill: #39c2d7;
      }

      .cls-1, .cls-2 {
        fill-rule: evenodd;
      }

      .cls-2 {
        fill: #fff;
      }
    </style>
  </defs>
  <path class="cls-1" d="M2352.29,300.5v2.965a30.474,30.474,0,0,0-5.17,3.359,2.487,2.487,0,0,0-.91,1.931v2.565a0.68,0.68,0,1,0,1.36,0V308.75a1.149,1.149,0,0,1,.42-0.876,28.88,28.88,0,0,1,5.19-3.331,0.836,0.836,0,0,0,.48-0.765v-3.606a0.682,0.682,0,0,0-.31-0.567,1,1,0,0,1-.44-0.834v-3.745a2.688,2.688,0,0,1,2.69-2.689h0.8a2.7,2.7,0,0,1,2.7,2.689v3.745a1,1,0,0,1-.45.834,0.659,0.659,0,0,0-.31.567v3.606a0.862,0.862,0,0,0,.48.765,28.519,28.519,0,0,1,5.19,3.331,1.107,1.107,0,0,1,.42.876v2.565a0.68,0.68,0,1,0,1.36,0V308.75a2.487,2.487,0,0,0-.91-1.931,29.706,29.706,0,0,0-5.17-3.359V300.5a2.384,2.384,0,0,0,.75-1.731V295.02a4.063,4.063,0,0,0-4.06-4.056h-0.8a4.063,4.063,0,0,0-4.06,4.056v3.744a2.384,2.384,0,0,0,.75,1.731h0Zm0,0" transform="translate(-2346.22 -290.969)"/>
  <path class="cls-2" d="M2357.28,304.143a0.51,0.51,0,0,0-.52.506,0.715,0.715,0,0,1-.25.536,0.558,0.558,0,0,0-.09.071,0.8,0.8,0,0,1-.42.128,0.756,0.756,0,0,1-.77-0.735,0.525,0.525,0,0,0-1.05,0,1.7,1.7,0,0,0,.4,1.092l-0.39,8.656a0.523,0.523,0,0,0,.18.4l1.24,1.07a0.55,0.55,0,0,0,.35.133,0.512,0.512,0,0,0,.35-0.133l1.26-1.087a0.5,0.5,0,0,0,.17-0.4l-0.4-8.555a1.685,1.685,0,0,0,.48-1.173,0.535,0.535,0,0,0-.54-0.511h0Zm-1.33,10.667-0.7-.606,0.35-7.852a1.842,1.842,0,0,0,.39.041,2.024,2.024,0,0,0,.3-0.025l0.37,7.819Zm0,0" transform="translate(-2346.22 -290.969)"/>
</svg>
