<svg id="_-e-ic_hr" data-name="-e-ic_hr" xmlns="http://www.w3.org/2000/svg" width="30" height="30" viewBox="0 0 30 30">
<defs>
    <style>
      .cls-1 {
        fill: #39c2d7;
      }

      .cls-1, .cls-2 {
        fill-rule: evenodd;
      }

      .cls-2 {
        fill: #fff;
      }
    </style>
  </defs>
  <path class="cls-1" d="M2639.71,304.729a23.44,23.44,0,0,1,2.96-1.756,0.758,0.758,0,0,0,.42-0.669v-2.938a0.622,0.622,0,0,0-.27-0.5,0.754,0.754,0,0,1-.35-0.636v-3.05a2.146,2.146,0,0,1,2.14-2.137h0.66a2.134,2.134,0,0,1,2.13,2.137v3.05a0.769,0.769,0,0,1-.34.636,0.6,0.6,0,0,0-.27.5V302.3a0.758,0.758,0,0,0,.42.669,22.666,22.666,0,0,1,2.54,1.474c0.18,0.117.35,0.239,0.53,0.368a0.6,0.6,0,0,0,.35.11,0.623,0.623,0,0,0,.5-0.257,0.614,0.614,0,0,0-.15-0.845c-0.19-.134-0.38-0.263-0.56-0.386a27.536,27.536,0,0,0-2.42-1.42V299.66a2.008,2.008,0,0,0,.61-1.432v-3.05a3.35,3.35,0,0,0-3.35-3.348h-0.66a3.348,3.348,0,0,0-3.34,3.348v3.05a1.976,1.976,0,0,0,.61,1.432v2.357a25.045,25.045,0,0,0-2.86,1.721,0.607,0.607,0,1,0,.7.991h0Zm0,0" transform="translate(-2630 -284)"/>
  <path class="cls-2" d="M2630,299a0.6,0.6,0,0,0,.6.606h2.6a11.777,11.777,0,0,0,11.19,11.136v2.651a0.605,0.605,0,1,0,1.21,0v-2.657a11.776,11.776,0,0,0,11.08-11.13h2.71a0.607,0.607,0,1,0,0-1.213h-2.71a11.777,11.777,0,0,0-11.08-11.131v-2.656a0.605,0.605,0,1,0-1.21,0v2.651a11.77,11.77,0,0,0-11.19,11.136h-2.6a0.6,0.6,0,0,0-.6.607h0Zm4.4-.245a10.544,10.544,0,1,1,0,.489,0.66,0.66,0,0,0,.05-0.244,0.506,0.506,0,0,0-.05-0.245h0Zm0,0" transform="translate(-2630 -284)"/>
</svg>
