<svg id="_-e-ic_community" data-name="-e-ic_community" xmlns="http://www.w3.org/2000/svg" width="37" height="21" viewBox="0 0 37 21">
<defs>
    <style>
      .cls-1 {
        fill: #fff;
      }

      .cls-1, .cls-2 {
        fill-rule: evenodd;
      }

      .cls-2 {
        fill: #39c2d7;
      }
    </style>
  </defs>
  <path class="cls-1" d="M1805.04,296.933h0.61a1.821,1.821,0,0,1,1.81,1.827v2.868a0.535,0.535,0,0,1-.24.449,0.739,0.739,0,0,0-.33.624v2.761a0.862,0.862,0,0,0,.49.792,21.831,21.831,0,0,1,3.9,2.526,0.642,0.642,0,0,1,.22.494v1.964a0.75,0.75,0,1,0,1.5,0v-1.964a2.131,2.131,0,0,0-.78-1.659,22.9,22.9,0,0,0-3.85-2.533V303.05a2.072,2.072,0,0,0,.58-1.422V298.76a3.326,3.326,0,0,0-3.31-3.333h-0.61a3.324,3.324,0,0,0-3.31,3.333v2.868a2.028,2.028,0,0,0,.58,1.422v0.982a0.745,0.745,0,1,0,1.49,0v-1.324a0.766,0.766,0,0,0-.33-0.624,0.532,0.532,0,0,1-.24-0.449v-2.868a1.825,1.825,0,0,1,1.82-1.834h0Zm0,0-28.27,10.691a2.149,2.149,0,0,0-.77,1.658v1.964a0.745,0.745,0,1,0,1.49,0v-1.964a0.664,0.664,0,0,1,.23-0.494,21.671,21.671,0,0,1,3.9-2.527,0.878,0.878,0,0,0,.49-0.791v-2.762a0.766,0.766,0,0,0-.33-0.624,0.532,0.532,0,0,1-.24-0.449v-2.868a1.816,1.816,0,0,1,1.81-1.826h0.61a1.821,1.821,0,0,1,1.81,1.826v2.868a0.532,0.532,0,0,1-.24.449,0.741,0.741,0,0,0-.33.624v1.385a0.745,0.745,0,1,0,1.49,0v-1.035a2.063,2.063,0,0,0,.57-1.423v-2.868a3.317,3.317,0,0,0-3.3-3.333h-0.61a3.325,3.325,0,0,0-3.31,3.333v2.868a2.063,2.063,0,0,0,.57,1.423v2.032a24.211,24.211,0,0,0-3.84,2.534h0Zm0,0" transform="translate(-1776 -291)"/>
  <path class="cls-2" d="M1803.48,312a0.746,0.746,0,0,0,.75-0.752V308.7a2.535,2.535,0,0,0-.92-1.97,29.825,29.825,0,0,0-5.06-3.317v-2.861a2.429,2.429,0,0,0,.74-1.75v-3.713a4.085,4.085,0,0,0-4.06-4.093h-0.79a4.084,4.084,0,0,0-4.06,4.093v3.713a2.429,2.429,0,0,0,.74,1.75v2.861a29.825,29.825,0,0,0-5.06,3.317,2.535,2.535,0,0,0-.92,1.97v2.543a0.75,0.75,0,1,0,1.5,0V308.7a1.036,1.036,0,0,1,.37-0.8,28.539,28.539,0,0,1,5.1-3.3,0.918,0.918,0,0,0,.51-0.822v-3.576a0.764,0.764,0,0,0-.33-0.624,0.916,0.916,0,0,1-.41-0.768V295.1a2.584,2.584,0,0,1,2.57-2.587h0.79a2.574,2.574,0,0,1,2.56,2.587v3.714a0.943,0.943,0,0,1-.4.768,0.748,0.748,0,0,0-.34.624v3.576a0.928,0.928,0,0,0,.52.829,28.357,28.357,0,0,1,5.09,3.295,1.046,1.046,0,0,1,.38.807v2.541a0.721,0.721,0,0,0,.73.745h0Zm0,0" transform="translate(-1776 -291)"/>
</svg>
